<svg width="30" height="30" viewBox="0 0 30 30" fill="none" xmlns="http://www.w3.org/2000/svg">
<path d="M23.0555 15.0566C23.0555 19.4058 19.5297 22.9316 15.1805 22.9316M23.0555 15.0566C23.0555 10.7073 19.5297 7.18158 15.1805 7.18158M23.0555 15.0566C23.0555 13.3631 19.5297 11.9903 15.1805 11.9903C10.8312 11.9903 7.30545 13.3631 7.30545 15.0566M23.0555 15.0566C23.0555 16.75 19.5297 18.1229 15.1805 18.1229C10.8312 18.1229 7.30545 16.75 7.30545 15.0566M15.1805 22.9316C10.8312 22.9316 7.30545 19.4058 7.30545 15.0566M15.1805 22.9316C16.8739 22.9316 18.2468 19.4058 18.2468 15.0566C18.2468 10.7073 16.8739 7.18158 15.1805 7.18158M15.1805 22.9316C13.487 22.9316 12.1142 19.4058 12.1142 15.0566C12.1142 10.7073 13.487 7.18158 15.1805 7.18158M7.30545 15.0566C7.30545 10.7073 10.8312 7.18158 15.1805 7.18158" stroke="#BCBCCC" stroke-width="2"/>
</svg>
