<svg width="37" height="37" viewBox="0 0 37 37" fill="none" xmlns="http://www.w3.org/2000/svg">
<path d="M0 18.5C0 8.28273 8.28273 0 18.5 0C28.7173 0 37 8.28273 37 18.5C37 28.7173 28.7173 37 18.5 37C8.28273 37 0 28.7173 0 18.5Z" fill="white"/>
<path d="M14.5791 26.7558C14.4851 25.9047 14.4001 24.5958 14.6164 23.6667C14.8119 22.8272 15.8778 18.32 15.8778 18.32C15.8778 18.32 15.556 17.6757 15.556 16.723C15.556 15.2273 16.4229 14.1107 17.5024 14.1107C18.4201 14.1107 18.8633 14.7997 18.8633 15.6259C18.8633 16.5488 18.2758 17.9286 17.9725 19.2073C17.7191 20.2779 18.5094 21.151 19.5654 21.151C21.4772 21.151 22.9468 19.1352 22.9468 16.2254C22.9468 13.6499 21.0962 11.8492 18.4537 11.8492C15.3931 11.8492 13.5966 14.1448 13.5966 16.5172C13.5966 17.4417 13.9527 18.4331 14.3971 18.972C14.4851 19.0785 14.4979 19.1718 14.4717 19.2805C14.3901 19.6203 14.2086 20.3509 14.173 20.5004C14.1261 20.6973 14.0171 20.7391 13.8133 20.6442C12.4698 20.0189 11.6299 18.0547 11.6299 16.4771C11.6299 13.084 14.0952 9.96782 18.7372 9.96782C22.4686 9.96782 25.3684 12.6268 25.3684 16.1803C25.3684 19.8874 23.031 22.8709 19.7867 22.8709C18.6967 22.8709 17.672 22.3046 17.3213 21.6357C17.3213 21.6357 16.7819 23.6895 16.6511 24.1928C16.4083 25.1271 15.7527 26.2982 15.3142 27.0127L14.5791 26.7558Z" fill="#E60023"/>
</svg>
