<svg width="37" height="37" viewBox="0 0 37 37" fill="none" xmlns="http://www.w3.org/2000/svg">
<path d="M0 18.5C0 8.28273 8.28273 0 18.5 0C28.7173 0 37 8.28273 37 18.5C37 28.7173 28.7173 37 18.5 37C8.28273 37 0 28.7173 0 18.5Z" fill="white"/>
<path fill-rule="evenodd" clip-rule="evenodd" d="M22.1429 27H14.8571C13.5689 27 12.3335 26.4955 11.4226 25.5974C10.5117 24.6994 10 23.4813 10 22.2113V14.7887C10 13.5187 10.5117 12.3006 11.4226 11.4026C12.3335 10.5045 13.5689 10 14.8571 10H22.1429C23.4311 10 24.6665 10.5045 25.5774 11.4026C26.4883 12.3006 27 13.5187 27 14.7887V22.2113C27 22.8401 26.8744 23.4628 26.6303 24.0438C26.3862 24.6248 26.0284 25.1527 25.5774 25.5974C25.1264 26.0421 24.5909 26.3948 24.0016 26.6355C23.4123 26.8761 22.7807 27 22.1429 27ZM25.4214 14.4296C25.4214 13.6358 25.1016 12.8745 24.5323 12.3132C23.963 11.7519 23.1908 11.4366 22.3857 11.4366H14.4929C13.6877 11.4366 12.9156 11.7519 12.3463 12.3132C11.777 12.8745 11.4571 13.6358 11.4571 14.4296V22.2113C11.4571 23.005 11.777 23.7663 12.3463 24.3276C12.9156 24.8889 13.6877 25.2042 14.4929 25.2042H22.3857C23.1908 25.2042 23.963 24.8889 24.5323 24.3276C25.1016 23.7663 25.4214 23.005 25.4214 22.2113V14.4296ZM22.9929 14.9085C22.7767 14.9085 22.5654 14.8453 22.3857 14.7269C22.206 14.6085 22.0659 14.4402 21.9832 14.2433C21.9005 14.0464 21.8788 13.8298 21.921 13.6208C21.9632 13.4118 22.0672 13.2198 22.2201 13.0691C22.3729 12.9184 22.5677 12.8158 22.7796 12.7742C22.9916 12.7327 23.2114 12.754 23.4111 12.8355C23.6108 12.9171 23.7815 13.0552 23.9015 13.2324C24.0216 13.4096 24.0857 13.6179 24.0857 13.831C24.0857 14.1167 23.9706 14.3908 23.7656 14.5929C23.5607 14.7949 23.2827 14.9085 22.9929 14.9085ZM18.4393 22.8099C17.5627 22.8099 16.7058 22.5536 15.9769 22.0734C15.2481 21.5933 14.68 20.9108 14.3445 20.1124C14.0091 19.3139 13.9213 18.4353 14.0923 17.5877C14.2633 16.74 14.6854 15.9614 15.3053 15.3503C15.9251 14.7392 16.7149 14.323 17.5746 14.1544C18.4344 13.9858 19.3255 14.0723 20.1354 14.403C20.9453 14.7338 21.6375 15.2939 22.1245 16.0125C22.6115 16.7311 22.8714 17.5759 22.8714 18.4401C22.8714 19.5991 22.4045 20.7105 21.5733 21.53C20.7421 22.3495 19.6148 22.8099 18.4393 22.8099ZM18.4393 15.6268C17.8749 15.6268 17.3232 15.7918 16.8539 16.1009C16.3847 16.41 16.0189 16.8494 15.8029 17.3635C15.5869 17.8776 15.5304 18.4433 15.6405 18.989C15.7506 19.5347 16.0224 20.036 16.4215 20.4295C16.8206 20.823 17.329 21.0909 17.8826 21.1995C18.4361 21.308 19.0099 21.2523 19.5313 21.0394C20.0527 20.8264 20.4984 20.4658 20.8119 20.0032C21.1255 19.5405 21.2929 18.9966 21.2929 18.4401C21.2929 17.694 20.9922 16.9784 20.4571 16.4508C19.9219 15.9232 19.1961 15.6268 18.4393 15.6268Z" fill="#FF20A7"/>
<path fill-rule="evenodd" clip-rule="evenodd" d="M22.1429 27H14.8571C13.5689 27 12.3335 26.4955 11.4226 25.5974C10.5117 24.6994 10 23.4813 10 22.2113V14.7887C10 13.5187 10.5117 12.3006 11.4226 11.4026C12.3335 10.5045 13.5689 10 14.8571 10H22.1429C23.4311 10 24.6665 10.5045 25.5774 11.4026C26.4883 12.3006 27 13.5187 27 14.7887V22.2113C27 22.8401 26.8744 23.4628 26.6303 24.0438C26.3862 24.6248 26.0284 25.1527 25.5774 25.5974C25.1264 26.0421 24.5909 26.3948 24.0016 26.6355C23.4123 26.8761 22.7807 27 22.1429 27ZM25.4214 14.4296C25.4214 13.6358 25.1016 12.8745 24.5323 12.3132C23.963 11.7519 23.1908 11.4366 22.3857 11.4366H14.4929C13.6877 11.4366 12.9156 11.7519 12.3463 12.3132C11.777 12.8745 11.4571 13.6358 11.4571 14.4296V22.2113C11.4571 23.005 11.777 23.7663 12.3463 24.3276C12.9156 24.8889 13.6877 25.2042 14.4929 25.2042H22.3857C23.1908 25.2042 23.963 24.8889 24.5323 24.3276C25.1016 23.7663 25.4214 23.005 25.4214 22.2113V14.4296ZM22.9929 14.9085C22.7767 14.9085 22.5654 14.8453 22.3857 14.7269C22.206 14.6085 22.0659 14.4402 21.9832 14.2433C21.9005 14.0464 21.8788 13.8298 21.921 13.6208C21.9632 13.4118 22.0672 13.2198 22.2201 13.0691C22.3729 12.9184 22.5677 12.8158 22.7796 12.7742C22.9916 12.7327 23.2114 12.754 23.4111 12.8355C23.6108 12.9171 23.7815 13.0552 23.9015 13.2324C24.0216 13.4096 24.0857 13.6179 24.0857 13.831C24.0857 14.1167 23.9706 14.3908 23.7656 14.5929C23.5607 14.7949 23.2827 14.9085 22.9929 14.9085ZM18.4393 22.8099C17.5627 22.8099 16.7058 22.5536 15.9769 22.0734C15.2481 21.5933 14.68 20.9108 14.3445 20.1124C14.0091 19.3139 13.9213 18.4353 14.0923 17.5877C14.2633 16.74 14.6854 15.9614 15.3053 15.3503C15.9251 14.7392 16.7149 14.323 17.5746 14.1544C18.4344 13.9858 19.3255 14.0723 20.1354 14.403C20.9453 14.7338 21.6375 15.2939 22.1245 16.0125C22.6115 16.7311 22.8714 17.5759 22.8714 18.4401C22.8714 19.5991 22.4045 20.7105 21.5733 21.53C20.7421 22.3495 19.6148 22.8099 18.4393 22.8099ZM18.4393 15.6268C17.8749 15.6268 17.3232 15.7918 16.8539 16.1009C16.3847 16.41 16.0189 16.8494 15.8029 17.3635C15.5869 17.8776 15.5304 18.4433 15.6405 18.989C15.7506 19.5347 16.0224 20.036 16.4215 20.4295C16.8206 20.823 17.329 21.0909 17.8826 21.1995C18.4361 21.308 19.0099 21.2523 19.5313 21.0394C20.0527 20.8264 20.4984 20.4658 20.8119 20.0032C21.1255 19.5405 21.2929 18.9966 21.2929 18.4401C21.2929 17.694 20.9922 16.9784 20.4571 16.4508C19.9219 15.9232 19.1961 15.6268 18.4393 15.6268Z" fill="url(#paint0_radial_1_1599)"/>
<path fill-rule="evenodd" clip-rule="evenodd" d="M22.1429 27H14.8571C13.5689 27 12.3335 26.4955 11.4226 25.5974C10.5117 24.6994 10 23.4813 10 22.2113V14.7887C10 13.5187 10.5117 12.3006 11.4226 11.4026C12.3335 10.5045 13.5689 10 14.8571 10H22.1429C23.4311 10 24.6665 10.5045 25.5774 11.4026C26.4883 12.3006 27 13.5187 27 14.7887V22.2113C27 22.8401 26.8744 23.4628 26.6303 24.0438C26.3862 24.6248 26.0284 25.1527 25.5774 25.5974C25.1264 26.0421 24.5909 26.3948 24.0016 26.6355C23.4123 26.8761 22.7807 27 22.1429 27ZM25.4214 14.4296C25.4214 13.6358 25.1016 12.8745 24.5323 12.3132C23.963 11.7519 23.1908 11.4366 22.3857 11.4366H14.4929C13.6877 11.4366 12.9156 11.7519 12.3463 12.3132C11.777 12.8745 11.4571 13.6358 11.4571 14.4296V22.2113C11.4571 23.005 11.777 23.7663 12.3463 24.3276C12.9156 24.8889 13.6877 25.2042 14.4929 25.2042H22.3857C23.1908 25.2042 23.963 24.8889 24.5323 24.3276C25.1016 23.7663 25.4214 23.005 25.4214 22.2113V14.4296ZM22.9929 14.9085C22.7767 14.9085 22.5654 14.8453 22.3857 14.7269C22.206 14.6085 22.0659 14.4402 21.9832 14.2433C21.9005 14.0464 21.8788 13.8298 21.921 13.6208C21.9632 13.4118 22.0672 13.2198 22.2201 13.0691C22.3729 12.9184 22.5677 12.8158 22.7796 12.7742C22.9916 12.7327 23.2114 12.754 23.4111 12.8355C23.6108 12.9171 23.7815 13.0552 23.9015 13.2324C24.0216 13.4096 24.0857 13.6179 24.0857 13.831C24.0857 14.1167 23.9706 14.3908 23.7656 14.5929C23.5607 14.7949 23.2827 14.9085 22.9929 14.9085ZM18.4393 22.8099C17.5627 22.8099 16.7058 22.5536 15.9769 22.0734C15.2481 21.5933 14.68 20.9108 14.3445 20.1124C14.0091 19.3139 13.9213 18.4353 14.0923 17.5877C14.2633 16.74 14.6854 15.9614 15.3053 15.3503C15.9251 14.7392 16.7149 14.323 17.5746 14.1544C18.4344 13.9858 19.3255 14.0723 20.1354 14.403C20.9453 14.7338 21.6375 15.2939 22.1245 16.0125C22.6115 16.7311 22.8714 17.5759 22.8714 18.4401C22.8714 19.5991 22.4045 20.7105 21.5733 21.53C20.7421 22.3495 19.6148 22.8099 18.4393 22.8099ZM18.4393 15.6268C17.8749 15.6268 17.3232 15.7918 16.8539 16.1009C16.3847 16.41 16.0189 16.8494 15.8029 17.3635C15.5869 17.8776 15.5304 18.4433 15.6405 18.989C15.7506 19.5347 16.0224 20.036 16.4215 20.4295C16.8206 20.823 17.329 21.0909 17.8826 21.1995C18.4361 21.308 19.0099 21.2523 19.5313 21.0394C20.0527 20.8264 20.4984 20.4658 20.8119 20.0032C21.1255 19.5405 21.2929 18.9966 21.2929 18.4401C21.2929 17.694 20.9922 16.9784 20.4571 16.4508C19.9219 15.9232 19.1961 15.6268 18.4393 15.6268Z" fill="url(#paint1_radial_1_1599)"/>
<defs>
<radialGradient id="paint0_radial_1_1599" cx="0" cy="0" r="1" gradientUnits="userSpaceOnUse" gradientTransform="translate(14.25 26.4688) rotate(106.302) scale(11.7343)">
<stop stop-color="#FFFCB2"/>
<stop offset="0.233898" stop-color="#FFB21C" stop-opacity="0.81768"/>
<stop offset="1" stop-color="#FF24BE" stop-opacity="0"/>
</radialGradient>
<radialGradient id="paint1_radial_1_1599" cx="0" cy="0" r="1" gradientUnits="userSpaceOnUse" gradientTransform="translate(14.0375 10) rotate(75.3027) scale(6.70049 15.713)">
<stop stop-color="#2E62DF"/>
<stop offset="1" stop-color="#6E48D8" stop-opacity="0"/>
</radialGradient>
</defs>
</svg>
