<svg width="37" height="37" viewBox="0 0 37 37" fill="none" xmlns="http://www.w3.org/2000/svg">
<path d="M0 18.5C0 8.28273 8.28273 0 18.5 0C28.7173 0 37 8.28273 37 18.5C37 28.7173 28.7173 37 18.5 37C8.28273 37 0 28.7173 0 18.5Z" fill="white"/>
<path d="M25.2596 15.0321C25.27 15.182 25.27 15.3319 25.27 15.4831C25.27 20.0917 21.7615 25.4068 15.3462 25.4068V25.4041C13.4511 25.4068 11.5954 24.864 10 23.8405C10.2756 23.8736 10.5525 23.8902 10.8301 23.8909C12.4007 23.8923 13.9263 23.3653 15.1618 22.395C13.6693 22.3667 12.3606 21.3936 11.9034 19.9729C12.4262 20.0738 12.9649 20.053 13.478 19.9128C11.8509 19.5841 10.6803 18.1545 10.6803 16.4942V16.45C11.1651 16.72 11.7079 16.8699 12.2632 16.8865C10.7307 15.8623 10.2583 13.8235 11.1837 12.2295C12.9545 14.4085 15.5672 15.7331 18.3719 15.8733C18.0908 14.6619 18.4748 13.3925 19.3809 12.541C20.7857 11.2205 22.995 11.2882 24.3155 12.6922C25.0966 12.5382 25.8453 12.2516 26.5304 11.8455C26.27 12.6529 25.7251 13.3387 24.9972 13.7745C25.6885 13.693 26.3639 13.5079 27 13.2254C26.5317 13.9271 25.9419 14.5383 25.2596 15.0321Z" fill="#1D9BF0"/>
</svg>
