<svg width="210" height="81" viewBox="0 0 210 81" fill="none" xmlns="http://www.w3.org/2000/svg">
<path d="M8 10.5H202C206.142 10.5 209.5 13.8579 209.5 18V73C209.5 77.1421 206.142 80.5 202 80.5H8C3.85786 80.5 0.5 77.1421 0.5 73V18L0.509766 17.6143C0.710537 13.6514 3.98724 10.5 8 10.5Z" stroke="#E48144"/>
<rect width="19.2146" height="19.2146" transform="translate(10)" fill="white"/>
<path d="M24.4198 5.01247H23.1162V4H16.0984V5.01247H14.7948C14.3565 5.01247 14 5.37934 14 5.83036V6.63358C14 8.11869 14.9844 9.36857 16.3161 9.7373C16.7121 10.8474 17.6205 11.6997 18.7483 11.9923V13.4467H18.5108C17.562 13.4467 16.7929 14.2382 16.7929 15.2146H22.4218C22.4218 14.2382 21.6527 13.4467 20.7039 13.4467H20.4662V11.9923C21.594 11.6997 22.5025 10.8474 22.8985 9.7373C24.2301 9.36857 25.2146 8.11869 25.2146 6.63358V5.83036C25.2146 5.37934 24.8581 5.01247 24.4198 5.01247ZM14.8589 6.63358V5.8964H16.0984V8.49489C16.0984 8.56724 16.1048 8.63786 16.1089 8.70915C15.3704 8.32411 14.8589 7.54225 14.8589 6.63358ZM20.766 9.2666L19.6073 8.63972L18.4486 9.2666L18.6699 7.93884L17.7325 6.99853L19.0279 6.8048L19.6073 5.59678L20.1866 6.8048L21.4821 6.99853L20.5447 7.93884L20.766 9.2666ZM24.3556 6.63358C24.3556 7.54225 23.8442 8.32411 23.1057 8.70915C23.1097 8.63786 23.1162 8.56723 23.1162 8.49489V5.8964H24.3556L24.3556 6.63358Z" fill="#E48144"/>
</svg>
