<svg width="37" height="37" viewBox="0 0 37 37" fill="none" xmlns="http://www.w3.org/2000/svg">
<path d="M0 18.5C0 8.28273 8.28273 0 18.5 0C28.7173 0 37 8.28273 37 18.5C37 28.7173 28.7173 37 18.5 37C8.28273 37 0 28.7173 0 18.5Z" fill="white"/>
<path fill-rule="evenodd" clip-rule="evenodd" d="M14.25 15.6198H16.0714V13.9339C16.0714 13.1831 16.1115 11.9865 16.6786 11.2645C17.2727 10.5041 18.0055 10 19.4107 10C21.7027 10 22.75 10.281 22.75 10.281L22.2946 12.9504C21.8069 12.7866 21.2951 12.6918 20.7768 12.6694C20.0661 12.6694 19.4107 12.8292 19.4107 13.5124V15.6198H22.4464V18.1488H19.4107V27H16.0714V18.1488H14.25V15.6198Z" fill="#1D52A1"/>
</svg>
