<svg width="37" height="37" viewBox="0 0 37 37" fill="none" xmlns="http://www.w3.org/2000/svg">
<path d="M0 18.5C0 8.28273 8.28273 0 18.5 0C28.7173 0 37 8.28273 37 18.5C37 28.7173 28.7173 37 18.5 37C8.28273 37 0 28.7173 0 18.5Z" fill="white"/>
<path d="M23.6859 13.9399C23.5783 13.8843 23.4736 13.8233 23.3721 13.7573C23.077 13.5622 22.8065 13.3323 22.5663 13.0726C21.9653 12.385 21.7409 11.6874 21.6582 11.199H21.6615C21.5924 10.7936 21.621 10.5312 21.6253 10.5312H18.888V21.1157C18.888 21.2579 18.888 21.3983 18.8821 21.5371C18.8821 21.5544 18.8804 21.5703 18.8794 21.5889C18.8794 21.5965 18.8794 21.6045 18.8778 21.6125C18.8778 21.6145 18.8778 21.6164 18.8778 21.6184C18.8489 21.9982 18.7272 22.3651 18.5232 22.6867C18.3193 23.0084 18.0395 23.2751 17.7083 23.4632C17.3632 23.6596 16.9729 23.7625 16.5758 23.762C15.3004 23.762 14.2668 22.7221 14.2668 21.4378C14.2668 20.1535 15.3004 19.1136 16.5758 19.1136C16.8172 19.1134 17.0571 19.1514 17.2867 19.2262L17.29 16.4391C16.5932 16.3491 15.8853 16.4045 15.2109 16.6017C14.5366 16.799 13.9104 17.1339 13.372 17.5853C12.9002 17.9952 12.5036 18.4843 12.1999 19.0306C12.0844 19.2298 11.6484 20.0303 11.5956 21.3296C11.5624 22.067 11.7839 22.831 11.8895 23.1468V23.1534C11.9559 23.3394 12.2132 23.9739 12.6326 24.5088C12.9707 24.9378 13.3702 25.3148 13.8183 25.6274V25.6207L13.8249 25.6274C15.15 26.5279 16.6193 26.4687 16.6193 26.4687C16.8736 26.4585 17.7256 26.4687 18.6931 26.0102C19.7663 25.5019 20.3772 24.7445 20.3772 24.7445C20.7675 24.292 21.0779 23.7763 21.2949 23.2195C21.5426 22.5684 21.6253 21.7874 21.6253 21.4753V15.86C21.6585 15.8799 22.1008 16.1725 22.1008 16.1725C22.1008 16.1725 22.7379 16.5809 23.732 16.8468C24.4453 17.0361 25.4061 17.0759 25.4061 17.0759V14.3586C25.0695 14.3951 24.3858 14.2888 23.6859 13.9399Z" fill="#222222"/>
</svg>
