<svg width="74" height="84" viewBox="0 0 74 84" fill="none" xmlns="http://www.w3.org/2000/svg">
<path d="M35 10.5H39C58.0538 10.5 73.5 25.9462 73.5 45V49C73.5 68.0538 58.0538 83.5 39 83.5H35C15.9462 83.5 0.5 68.0538 0.5 49V45C0.5 25.9462 15.9462 10.5 35 10.5Z" stroke="#F3A335"/>
<path d="M27.3154 46.5324C26.3421 46.5324 25.3754 46.4057 24.4154 46.1524C23.4687 45.8857 22.6554 45.5124 21.9754 45.0324L23.2554 42.5524C23.7887 42.939 24.4021 43.2457 25.0954 43.4724C25.8021 43.699 26.5154 43.8124 27.2354 43.8124C28.0487 43.8124 28.6887 43.6524 29.1554 43.3324C29.6221 43.0124 29.8554 42.5657 29.8554 41.9924C29.8554 41.6324 29.7621 41.3124 29.5754 41.0324C29.3887 40.7524 29.0554 40.539 28.5754 40.3924C28.1087 40.2457 27.4487 40.1724 26.5954 40.1724H23.0154L23.7354 32.2924H32.2754V34.8924H24.8954L26.5754 33.4124L26.0754 39.0324L24.3954 37.5524H27.3554C28.7421 37.5524 29.8554 37.7457 30.6954 38.1324C31.5487 38.5057 32.1687 39.019 32.5554 39.6724C32.9421 40.3257 33.1354 41.0657 33.1354 41.8924C33.1354 42.719 32.9287 43.4857 32.5154 44.1924C32.1021 44.8857 31.4621 45.4524 30.5954 45.8924C29.7421 46.319 28.6487 46.5324 27.3154 46.5324ZM34.5699 49.3724L35.8899 44.5724L36.3299 46.3724C35.7566 46.3724 35.2833 46.2057 34.9099 45.8724C34.5499 45.539 34.3699 45.079 34.3699 44.4924C34.3699 43.9057 34.5566 43.439 34.9299 43.0924C35.3033 42.7457 35.7633 42.5724 36.3099 42.5724C36.8699 42.5724 37.3299 42.7524 37.6899 43.1124C38.0499 43.459 38.2299 43.919 38.2299 44.4924C38.2299 44.6657 38.2166 44.839 38.1899 45.0124C38.1633 45.1724 38.1099 45.3724 38.0299 45.6124C37.9633 45.839 37.8499 46.1324 37.6899 46.4924L36.5499 49.3724H34.5699ZM45.4304 46.5324C44.2837 46.5324 43.2571 46.2524 42.3504 45.6924C41.4437 45.119 40.7304 44.2924 40.2104 43.2124C39.6904 42.1324 39.4304 40.8257 39.4304 39.2924C39.4304 37.759 39.6904 36.4524 40.2104 35.3724C40.7304 34.2924 41.4437 33.4724 42.3504 32.9124C43.2571 32.339 44.2837 32.0524 45.4304 32.0524C46.5904 32.0524 47.6171 32.339 48.5104 32.9124C49.4171 33.4724 50.1304 34.2924 50.6504 35.3724C51.1704 36.4524 51.4304 37.759 51.4304 39.2924C51.4304 40.8257 51.1704 42.1324 50.6504 43.2124C50.1304 44.2924 49.4171 45.119 48.5104 45.6924C47.6171 46.2524 46.5904 46.5324 45.4304 46.5324ZM45.4304 43.7924C45.9771 43.7924 46.4504 43.639 46.8504 43.3324C47.2637 43.0257 47.5837 42.539 47.8104 41.8724C48.0504 41.2057 48.1704 40.3457 48.1704 39.2924C48.1704 38.239 48.0504 37.379 47.8104 36.7124C47.5837 36.0457 47.2637 35.559 46.8504 35.2524C46.4504 34.9457 45.9771 34.7924 45.4304 34.7924C44.8971 34.7924 44.4237 34.9457 44.0104 35.2524C43.6104 35.559 43.2904 36.0457 43.0504 36.7124C42.8237 37.379 42.7104 38.239 42.7104 39.2924C42.7104 40.3457 42.8237 41.2057 43.0504 41.8724C43.2904 42.539 43.6104 43.0257 44.0104 43.3324C44.4237 43.639 44.8971 43.7924 45.4304 43.7924Z" fill="#98BA00"/>
<path d="M19.0169 64.7076V58.3076L19.7169 59.0076H17.6169V57.7076H20.6369V64.7076H19.0169ZM25.0449 64.7076V59.3276H26.6749L28.7049 63.0076H28.0549L30.2249 59.3276H31.6849L31.7049 64.7076H30.2949V60.9276L30.5349 61.0876L28.6849 64.1876H28.0249L26.1649 60.9776L26.4549 60.9076V64.7076H25.0449ZM35.8292 64.7876C35.2159 64.7876 34.6759 64.6676 34.2092 64.4276C33.7492 64.1876 33.3926 63.861 33.1392 63.4476C32.8859 63.0276 32.7592 62.551 32.7592 62.0176C32.7592 61.4776 32.8826 61.001 33.1292 60.5876C33.3826 60.1676 33.7259 59.841 34.1592 59.6076C34.5926 59.3676 35.0826 59.2476 35.6292 59.2476C36.1559 59.2476 36.6292 59.361 37.0492 59.5876C37.4759 59.8076 37.8126 60.1276 38.0592 60.5476C38.3059 60.961 38.4292 61.4576 38.4292 62.0376C38.4292 62.0976 38.4259 62.1676 38.4192 62.2476C38.4126 62.321 38.4059 62.391 38.3992 62.4576H34.0292V61.5476H37.5792L36.9792 61.8176C36.9792 61.5376 36.9226 61.2943 36.8092 61.0876C36.6959 60.881 36.5392 60.721 36.3392 60.6076C36.1392 60.4876 35.9059 60.4276 35.6392 60.4276C35.3726 60.4276 35.1359 60.4876 34.9292 60.6076C34.7292 60.721 34.5726 60.8843 34.4592 61.0976C34.3459 61.3043 34.2892 61.551 34.2892 61.8376V62.0776C34.2892 62.371 34.3526 62.631 34.4792 62.8576C34.6126 63.0776 34.7959 63.2476 35.0292 63.3676C35.2692 63.481 35.5492 63.5376 35.8692 63.5376C36.1559 63.5376 36.4059 63.4943 36.6192 63.4076C36.8392 63.321 37.0392 63.191 37.2192 63.0176L38.0492 63.9176C37.8026 64.1976 37.4926 64.4143 37.1192 64.5676C36.7459 64.7143 36.3159 64.7876 35.8292 64.7876ZM42.185 64.7876C41.605 64.7876 41.0883 64.671 40.635 64.4376C40.1817 64.1976 39.825 63.8676 39.565 63.4476C39.3117 63.0276 39.185 62.551 39.185 62.0176C39.185 61.4776 39.3117 61.001 39.565 60.5876C39.825 60.1676 40.1817 59.841 40.635 59.6076C41.0883 59.3676 41.605 59.2476 42.185 59.2476C42.7517 59.2476 43.245 59.3676 43.665 59.6076C44.085 59.841 44.395 60.1776 44.595 60.6176L43.385 61.2676C43.245 61.0143 43.0683 60.8276 42.855 60.7076C42.6483 60.5876 42.4217 60.5276 42.175 60.5276C41.9083 60.5276 41.6683 60.5876 41.455 60.7076C41.2417 60.8276 41.0717 60.9976 40.945 61.2176C40.825 61.4376 40.765 61.7043 40.765 62.0176C40.765 62.331 40.825 62.5976 40.945 62.8176C41.0717 63.0376 41.2417 63.2076 41.455 63.3276C41.6683 63.4476 41.9083 63.5076 42.175 63.5076C42.4217 63.5076 42.6483 63.451 42.855 63.3376C43.0683 63.2176 43.245 63.0276 43.385 62.7676L44.595 63.4276C44.395 63.861 44.085 64.1976 43.665 64.4376C43.245 64.671 42.7517 64.7876 42.185 64.7876ZM46.6832 64.7076V60.2476L47.0332 60.6076H44.8632V59.3276H50.0532V60.6076H47.8832L48.2332 60.2476V64.7076H46.6832ZM53.1802 64.7876C52.6068 64.7876 52.0968 64.6676 51.6502 64.4276C51.2102 64.1876 50.8602 63.861 50.6002 63.4476C50.3468 63.0276 50.2202 62.551 50.2202 62.0176C50.2202 61.4776 50.3468 61.001 50.6002 60.5876C50.8602 60.1676 51.2102 59.841 51.6502 59.6076C52.0968 59.3676 52.6068 59.2476 53.1802 59.2476C53.7468 59.2476 54.2535 59.3676 54.7002 59.6076C55.1468 59.841 55.4968 60.1643 55.7502 60.5776C56.0035 60.991 56.1302 61.471 56.1302 62.0176C56.1302 62.551 56.0035 63.0276 55.7502 63.4476C55.4968 63.861 55.1468 64.1876 54.7002 64.4276C54.2535 64.6676 53.7468 64.7876 53.1802 64.7876ZM53.1802 63.5076C53.4402 63.5076 53.6735 63.4476 53.8802 63.3276C54.0868 63.2076 54.2502 63.0376 54.3702 62.8176C54.4902 62.591 54.5502 62.3243 54.5502 62.0176C54.5502 61.7043 54.4902 61.4376 54.3702 61.2176C54.2502 60.9976 54.0868 60.8276 53.8802 60.7076C53.6735 60.5876 53.4402 60.5276 53.1802 60.5276C52.9202 60.5276 52.6868 60.5876 52.4802 60.7076C52.2735 60.8276 52.1068 60.9976 51.9802 61.2176C51.8602 61.4376 51.8002 61.7043 51.8002 62.0176C51.8002 62.3243 51.8602 62.591 51.9802 62.8176C52.1068 63.0376 52.2735 63.2076 52.4802 63.3276C52.6868 63.4476 52.9202 63.5076 53.1802 63.5076Z" fill="black"/>
<rect width="19.2146" height="19.2146" transform="translate(27.3928 0.3927)" fill="white"/>
<path d="M41.8126 5.40517H40.509V4.3927H33.4912V5.40517H32.1876C31.7493 5.40517 31.3928 5.77204 31.3928 6.22306V7.02628C31.3928 8.51139 32.3773 9.76127 33.7089 10.13C34.1049 11.2401 35.0134 12.0924 36.1412 12.385V13.8394H35.9036C34.9549 13.8394 34.1857 14.6309 34.1857 15.6073H39.8146C39.8146 14.6309 39.0455 13.8394 38.0967 13.8394H37.8591V12.385C38.9868 12.0924 39.8953 11.2401 40.2913 10.13C41.623 9.76127 42.6074 8.51139 42.6074 7.02628V6.22306C42.6074 5.77204 42.2509 5.40517 41.8126 5.40517ZM32.2518 7.02628V6.2891H33.4912V8.88759C33.4912 8.95994 33.4977 9.03056 33.5017 9.10185C32.7632 8.71681 32.2518 7.93495 32.2518 7.02628ZM38.1588 9.6593L37.0001 9.03242L35.8414 9.6593L36.0627 8.33154L35.1253 7.39123L36.4207 7.1975L37.0001 5.98948L37.5795 7.1975L38.8749 7.39123L37.9375 8.33154L38.1588 9.6593ZM41.7484 7.02628C41.7484 7.93495 41.237 8.71681 40.4985 9.10185C40.5026 9.03056 40.509 8.95994 40.509 8.88759V6.2891H41.7484L41.7484 7.02628Z" fill="#F3A334"/>
</svg>
