<svg width="20" height="20" viewBox="0 0 20 20" fill="none" xmlns="http://www.w3.org/2000/svg">
<rect width="19.2146" height="19.2146" transform="translate(0.392822 0.3927)" fill="white"/>
<path d="M14.8126 5.40517H13.509V4.3927H6.4912V5.40517H5.1876C4.74932 5.40517 4.39282 5.77204 4.39282 6.22306V7.02628C4.39282 8.51139 5.37725 9.76127 6.70893 10.13C7.10493 11.2401 8.01337 12.0924 9.14116 12.385V13.8394H8.90362C7.95486 13.8394 7.18572 14.6309 7.18572 15.6073H12.8146C12.8146 14.6309 12.0455 13.8394 11.0967 13.8394H10.8591V12.385C11.9868 12.0924 12.8953 11.2401 13.2913 10.13C14.623 9.76127 15.6074 8.51139 15.6074 7.02628V6.22306C15.6074 5.77204 15.2509 5.40517 14.8126 5.40517ZM5.25177 7.02628V6.2891H6.4912V8.88759C6.4912 8.95994 6.49765 9.03056 6.50171 9.10185C5.76321 8.71681 5.25177 7.93495 5.25177 7.02628ZM11.1588 9.6593L10.0001 9.03242L8.84141 9.6593L9.06271 8.33154L8.1253 7.39123L9.42075 7.1975L10.0001 5.98948L10.5795 7.1975L11.8749 7.39123L10.9375 8.33154L11.1588 9.6593ZM14.7484 7.02628C14.7484 7.93495 14.237 8.71681 13.4985 9.10185C13.5026 9.03056 13.509 8.95994 13.509 8.88759V6.2891H14.7484L14.7484 7.02628Z" fill="#F3A334"/>
</svg>
