<svg width="133" height="31" viewBox="0 0 133 31" fill="none" xmlns="http://www.w3.org/2000/svg">
<path d="M4.93877 15.6318C7.28192 13.1797 11.0809 13.1797 13.4241 15.6318C15.7672 18.0839 15.7672 22.0596 13.4241 24.5117L11.5384 26.4851C10.2367 27.8474 8.12614 27.8474 6.82439 26.4851L3.05315 22.5384C1.75141 21.1761 1.75141 18.9674 3.05315 17.6051L4.93877 15.6318Z" fill="#724DEA"/>
<path d="M25.3276 10.9268C26.1195 9.15616 28.6568 9.74679 28.6568 11.7018L28.6568 27.1459C28.6568 28.7124 27.3658 29.9374 25.876 29.7844C25.2924 29.7245 24.7467 29.4545 24.3321 29.0206L18.5312 22.9499C18.0695 22.4667 17.7933 21.8231 17.7548 21.141L17.7344 20.7795C17.6911 20.0129 17.9516 19.2615 18.4545 18.7023L25.0175 11.4049C25.1444 11.2637 25.2491 11.1024 25.3276 10.9268Z" fill="#724DEA"/>
<path d="M2.79417 0.0803528C1.29724 0.0803527 0.126709 1.43142 0.272909 2.99049C0.330182 3.60125 0.588147 4.1723 1.00281 4.60624L6.80369 10.6769C7.26537 11.1601 7.88037 11.4492 8.53214 11.4895L8.87764 11.5108C9.61015 11.5561 10.3281 11.2834 10.8624 10.7571L17.3477 4.36949C17.7918 3.93203 18.3788 3.68843 18.9887 3.68843H19.6592C20.6113 3.68843 21.3831 2.88074 21.3831 1.88439C21.3831 0.888049 20.6113 0.0803528 19.6592 0.080353L2.79417 0.0803528Z" fill="#724DEA"/>
<path d="M25.3235 1.6773e-07C27.1645 2.09836e-07 28.6568 1.5618 28.6568 3.48837V11.1628H21.3235C19.4826 11.1628 17.9902 9.60099 17.9902 7.67442L17.9902 0L25.3235 1.6773e-07Z" fill="#00BA9E"/>
<path fill-rule="evenodd" clip-rule="evenodd" d="M70.4102 1.70296C71.9537 1.79407 73.2922 2.06839 74.4256 2.52677C75.8552 3.09877 76.9349 3.93284 77.665 5.0291C78.3951 6.12557 78.7604 7.4528 78.7604 9.0101C78.7604 10.5515 78.3951 11.8787 77.665 12.9911C76.9501 14.0874 75.8929 14.9214 74.4938 15.4934C73.3467 15.9675 71.9855 16.244 70.4102 16.3251V18.1395H67.0105V16.3115C65.4864 16.2157 64.1553 15.9438 63.0177 15.4934C61.5882 14.9214 60.5009 14.0952 59.7556 13.0148C59.0103 11.9184 58.6375 10.5833 58.6375 9.0101C58.6375 7.43691 59.0103 6.10967 59.7556 5.0291C60.5009 3.93286 61.5882 3.09878 63.0177 2.52677C64.1553 2.07639 65.4864 1.8038 67.0105 1.70799V0H70.4102V1.70296ZM70.4102 13.3074C71.1849 13.2337 71.8617 13.0971 72.4406 12.8955C73.3684 12.5618 74.0609 12.0769 74.5172 11.4413C74.9733 10.7898 75.2011 9.97144 75.2011 8.98638C75.2011 8.00115 74.9653 7.19085 74.4938 6.55522C74.0223 5.91958 73.3305 5.45035 72.4179 5.14842C71.8448 4.94547 71.1755 4.80771 70.4102 4.73437V13.3074ZM67.0105 4.74659C66.2669 4.81914 65.6129 4.94414 65.0488 5.1247C64.1058 5.42663 63.3984 5.90369 62.9269 6.55522C62.4554 7.19084 62.2196 8.00902 62.2196 9.0101C62.2196 10.0112 62.4704 10.8379 62.9723 11.4894C63.4742 12.125 64.1968 12.6014 65.1397 12.9192C65.6944 13.094 66.3182 13.2165 67.0105 13.2902V4.74659Z" fill="black"/>
<path fill-rule="evenodd" clip-rule="evenodd" d="M89.1459 0.429155C90.4083 0.429162 91.5642 0.643499 92.6137 1.07253C93.6783 1.50155 94.5985 2.10547 95.3742 2.88404C96.165 3.66261 96.7812 4.57636 97.2223 5.62502C97.6633 6.65787 97.8842 7.80226 97.8842 9.05755C97.8842 10.297 97.6633 11.4492 97.2223 12.5138C96.7812 13.5626 96.1651 14.4768 95.3742 15.2555C94.5985 16.0182 93.6783 16.6143 92.6137 17.0433C91.5642 17.4723 90.4158 17.6867 89.1686 17.6867C87.9063 17.6867 86.7352 17.4722 85.6554 17.0433C84.5907 16.6142 83.6624 16.0104 82.8715 15.2318C82.0958 14.4531 81.4872 13.5389 81.0461 12.4901C80.6203 11.4413 80.4076 10.2969 80.4076 9.05755C80.4076 7.81815 80.6203 6.67375 81.0461 5.62502C81.4872 4.57631 82.1034 3.66264 82.8942 2.88404C83.6852 2.10538 84.6134 1.50158 85.6781 1.07253C86.7428 0.643519 87.8987 0.429155 89.1459 0.429155ZM89.1459 3.71863C88.431 3.71863 87.7693 3.84537 87.1609 4.09962C86.5677 4.35387 86.0429 4.71986 85.5866 5.19659C85.1304 5.67327 84.7731 6.23733 84.5146 6.88877C84.2713 7.54023 84.1493 8.2631 84.1492 9.05755C84.1492 9.8362 84.2712 10.5596 84.5146 11.227C84.7732 11.8785 85.1228 12.4425 85.5639 12.9192C86.0201 13.3959 86.5525 13.7612 87.1609 14.0155C87.7693 14.2697 88.431 14.3972 89.1459 14.3972C89.8608 14.3972 90.515 14.2697 91.1082 14.0155C91.7165 13.7612 92.249 13.3959 92.7052 12.9192C93.1614 12.4426 93.5112 11.8785 93.7545 11.227C94.0131 10.5755 94.1426 9.85209 94.1426 9.05755C94.1425 8.26312 94.013 7.54021 93.7545 6.88877C93.5112 6.23735 93.1614 5.67326 92.7052 5.19659C92.2641 4.71988 91.7393 4.35387 91.1309 4.09962C90.5225 3.84537 89.8608 3.71863 89.1459 3.71863Z" fill="black"/>
<path d="M40.9353 0.715259L46.9172 11.0746L52.7994 0.715259H55.8564L55.8791 17.4006H52.4113L52.3907 7.42072L47.6885 15.6365H46.0461L41.346 7.5954V17.4006H37.8782V0.715259H40.9353Z" fill="black"/>
<path fill-rule="evenodd" clip-rule="evenodd" d="M106.335 5.76808L109.643 0.715259H113.978L108.662 8.70028L114.142 16.993L121.087 0.715259H124.737L131.878 17.4006H128L126.582 13.825H119.179L117.756 17.4006H110.054L106.335 11.8704L102.662 17.4006H98.3954L104.099 8.86705L98.7601 0.715259H103.027L106.335 5.76808ZM120.346 10.8935H125.419L122.887 4.50721L120.346 10.8935Z" fill="black"/>
<path d="M38.0153 28.6047V24.5372H38.7413L40.4133 27.5456H40.12L41.836 24.5372H42.496V28.6047H41.858V25.366L41.9753 25.4351L40.406 28.1442H40.098L38.5213 25.3814L38.6607 25.3507V28.6047H38.0153Z" fill="#9393A3"/>
<path d="M43.8662 28.6047V24.5372H44.5702V27.4995L46.9536 24.5372H47.5916V28.6047H46.8876V25.6423L44.5116 28.6047H43.8662Z" fill="#9393A3"/>
<path d="M50.9274 28.6047V24.5372H54.5281V28.6047H53.8241V24.9977L53.9928 25.1819H51.4628L51.6314 24.9977V28.6047H50.9274Z" fill="#9393A3"/>
<path d="M57.555 28.6507C57.1639 28.6507 56.8168 28.5612 56.5137 28.3821C56.2105 28.203 55.971 27.9574 55.795 27.6454C55.619 27.3281 55.531 26.97 55.531 26.5709C55.531 26.1667 55.619 25.8086 55.795 25.4965C55.971 25.1844 56.2105 24.9414 56.5137 24.7674C56.8168 24.5884 57.1639 24.4988 57.555 24.4988C57.9412 24.4988 58.2859 24.5884 58.589 24.7674C58.897 24.9414 59.1365 25.1844 59.3076 25.4965C59.4837 25.8035 59.5716 26.1616 59.5716 26.5709C59.5716 26.9751 59.4837 27.3333 59.3076 27.6454C59.1365 27.9574 58.897 28.203 58.589 28.3821C58.2859 28.5612 57.9412 28.6507 57.555 28.6507ZM57.555 28.006C57.8043 28.006 58.0268 27.9472 58.2223 27.8295C58.4228 27.7119 58.5792 27.5456 58.6917 27.3307C58.8041 27.1107 58.8603 26.8574 58.8603 26.5709C58.8603 26.2793 58.8041 26.0286 58.6917 25.8188C58.5792 25.604 58.4228 25.4377 58.2223 25.32C58.0268 25.2023 57.8043 25.1435 57.555 25.1435C57.3057 25.1435 57.0832 25.2023 56.8877 25.32C56.6921 25.4377 56.5357 25.604 56.4183 25.8188C56.301 26.0286 56.2423 26.2793 56.2423 26.5709C56.2423 26.8574 56.301 27.1107 56.4183 27.3307C56.5357 27.5456 56.6921 27.7119 56.8877 27.8295C57.0832 27.9472 57.3057 28.006 57.555 28.006Z" fill="#9393A3"/>
<path d="M62.6489 28.6507C62.3262 28.6507 62.0305 28.574 61.7616 28.4205C61.4976 28.2619 61.2849 28.0291 61.1236 27.7221C60.9671 27.4151 60.8889 27.0314 60.8889 26.5709C60.8889 26.1105 60.9647 25.7267 61.1162 25.4198C61.2727 25.1128 61.4829 24.8826 61.7469 24.7291C62.0158 24.5756 62.3165 24.4988 62.6489 24.4988C63.0302 24.4988 63.3676 24.5858 63.6609 24.7598C63.9542 24.9337 64.1865 25.1767 64.3576 25.4888C64.5287 25.7958 64.6142 26.1565 64.6142 26.5709C64.6142 26.9854 64.5287 27.3486 64.3576 27.6607C64.1865 27.9728 63.9542 28.2158 63.6609 28.3898C63.3676 28.5637 63.0302 28.6507 62.6489 28.6507ZM60.5882 30.0935V24.5372H61.2629V25.6347L61.2189 26.5786L61.2922 27.5226V30.0935H60.5882ZM62.5902 28.006C62.8396 28.006 63.062 27.9472 63.2576 27.8295C63.458 27.7119 63.6145 27.5456 63.7269 27.3307C63.8442 27.1107 63.9029 26.8574 63.9029 26.5709C63.9029 26.2793 63.8442 26.0286 63.7269 25.8188C63.6145 25.604 63.458 25.4377 63.2576 25.32C63.062 25.2023 62.8396 25.1435 62.5902 25.1435C62.3458 25.1435 62.1233 25.2023 61.9229 25.32C61.7273 25.4377 61.5709 25.604 61.4536 25.8188C61.3411 26.0286 61.2849 26.2793 61.2849 26.5709C61.2849 26.8574 61.3411 27.1107 61.4536 27.3307C61.5709 27.5456 61.7273 27.7119 61.9229 27.8295C62.1233 27.9472 62.3458 28.006 62.5902 28.006Z" fill="#9393A3"/>
<path d="M65.7276 30.1395C65.5419 30.1395 65.361 30.1063 65.185 30.0398C65.009 29.9784 64.8574 29.8863 64.7303 29.7635L65.031 29.2109C65.1287 29.3081 65.2363 29.3823 65.3536 29.4335C65.471 29.4847 65.5956 29.5102 65.7276 29.5102C65.8988 29.5102 66.0405 29.4642 66.153 29.3721C66.2654 29.28 66.3705 29.1163 66.4683 28.8809L66.7103 28.3207L66.7836 28.2286L68.309 24.5372H68.9983L67.1136 29.0114C67.0012 29.2979 66.8741 29.523 66.7323 29.6867C66.5954 29.8505 66.4439 29.9656 66.2776 30.0321C66.1114 30.1037 65.9281 30.1395 65.7276 30.1395ZM66.6516 28.7351L64.877 24.5372H65.6103L67.121 28.1595L66.6516 28.7351Z" fill="#9393A3"/>
<path d="M72.1684 26.9393C71.9631 27.0416 71.7504 27.1235 71.5304 27.1849C71.3153 27.2412 71.0929 27.2693 70.8631 27.2693C70.3938 27.2693 70.0222 27.1542 69.7484 26.924C69.4795 26.6937 69.3451 26.3381 69.3451 25.8572V24.5372H70.0491V25.8112C70.0491 26.1028 70.1346 26.3177 70.3058 26.4558C70.4818 26.594 70.7164 26.663 71.0098 26.663C71.1955 26.663 71.3862 26.6374 71.5818 26.5863C71.7822 26.5351 71.9778 26.4635 72.1684 26.3714V26.9393ZM72.1171 28.6047V24.5372H72.8211V28.6047H72.1171Z" fill="#9393A3"/>
<path d="M73.8945 29.7405L74.2612 28.1902L74.3565 28.6354C74.2147 28.6354 74.095 28.5893 73.9972 28.4972C73.9043 28.4051 73.8578 28.2798 73.8578 28.1212C73.8578 27.9677 73.9043 27.8423 73.9972 27.7451C74.095 27.6479 74.2123 27.5993 74.3492 27.5993C74.491 27.5993 74.6058 27.6505 74.6938 27.7528C74.7818 27.85 74.8258 27.9728 74.8258 28.1212C74.8258 28.1723 74.821 28.2235 74.8112 28.2747C74.8063 28.3207 74.7941 28.377 74.7745 28.4435C74.7598 28.5049 74.7354 28.5816 74.7012 28.6737L74.3565 29.7405H73.8945Z" fill="#9393A3"/>
<path d="M80.6347 28.6047L79.1314 26.6247L79.7107 26.2563L81.4634 28.6047H80.6347ZM77.8187 28.6047V24.5372H78.5227V28.6047H77.8187ZM78.31 26.8856V26.2563H79.5934V26.8856H78.31ZM79.7694 26.6554L79.1167 26.5633L80.6054 24.5372H81.3607L79.7694 26.6554Z" fill="#9393A3"/>
<path d="M83.7373 28.6507C83.3462 28.6507 82.999 28.5612 82.6959 28.3821C82.3928 28.203 82.1533 27.9574 81.9773 27.6454C81.8013 27.3281 81.7133 26.97 81.7133 26.5709C81.7133 26.1667 81.8013 25.8086 81.9773 25.4965C82.1533 25.1844 82.3928 24.9414 82.6959 24.7674C82.999 24.5884 83.3462 24.4988 83.7373 24.4988C84.1235 24.4988 84.4682 24.5884 84.7713 24.7674C85.0793 24.9414 85.3188 25.1844 85.4899 25.4965C85.6659 25.8035 85.7539 26.1616 85.7539 26.5709C85.7539 26.9751 85.6659 27.3333 85.4899 27.6454C85.3188 27.9574 85.0793 28.203 84.7713 28.3821C84.4682 28.5612 84.1235 28.6507 83.7373 28.6507ZM83.7373 28.006C83.9866 28.006 84.209 27.9472 84.4046 27.8295C84.605 27.7119 84.7615 27.5456 84.8739 27.3307C84.9864 27.1107 85.0426 26.8574 85.0426 26.5709C85.0426 26.2793 84.9864 26.0286 84.8739 25.8188C84.7615 25.604 84.605 25.4377 84.4046 25.32C84.209 25.2023 83.9866 25.1435 83.7373 25.1435C83.4879 25.1435 83.2655 25.2023 83.0699 25.32C82.8744 25.4377 82.7179 25.604 82.6006 25.8188C82.4833 26.0286 82.4246 26.2793 82.4246 26.5709C82.4246 26.8574 82.4833 27.1107 82.6006 27.3307C82.7179 27.5456 82.8744 27.7119 83.0699 27.8295C83.2655 27.9472 83.4879 28.006 83.7373 28.006Z" fill="#9393A3"/>
<path d="M86.0965 28.597L86.1405 27.9754C86.1748 27.9805 86.2065 27.9856 86.2359 27.9907C86.2652 27.9958 86.2921 27.9984 86.3165 27.9984C86.473 27.9984 86.5952 27.9421 86.6832 27.8295C86.7761 27.717 86.8445 27.5686 86.8885 27.3844C86.9325 27.1951 86.9643 26.9828 86.9839 26.7474C87.0034 26.5121 87.0181 26.2767 87.0279 26.0414L87.0939 24.5372H90.0785V28.6047H89.3745V24.967L89.5432 25.1819H87.5485L87.7099 24.9593L87.6585 26.0874C87.6439 26.4456 87.617 26.7807 87.5779 27.0928C87.5388 27.4049 87.4777 27.6786 87.3945 27.914C87.3163 28.1493 87.2063 28.3335 87.0645 28.4665C86.9277 28.5995 86.7492 28.666 86.5292 28.666C86.4657 28.666 86.3972 28.6584 86.3239 28.643C86.2554 28.6328 86.1797 28.6174 86.0965 28.597Z" fill="#9393A3"/>
<path d="M91.4398 28.6047V24.5372H92.1438V27.4995L94.5271 24.5372H95.1651V28.6047H94.4611V25.6423L92.0851 28.6047H91.4398Z" fill="#9393A3"/>
<path d="M98.501 28.6047V24.5372H102.102V28.6047H101.398V24.9977L101.566 25.1819H99.0363L99.205 24.9977V28.6047H98.501Z" fill="#9393A3"/>
<path d="M105.129 28.6507C104.737 28.6507 104.39 28.5612 104.087 28.3821C103.784 28.203 103.545 27.9574 103.369 27.6454C103.193 27.3281 103.105 26.97 103.105 26.5709C103.105 26.1667 103.193 25.8086 103.369 25.4965C103.545 25.1844 103.784 24.9414 104.087 24.7674C104.39 24.5884 104.737 24.4988 105.129 24.4988C105.515 24.4988 105.859 24.5884 106.163 24.7674C106.471 24.9414 106.71 25.1844 106.881 25.4965C107.057 25.8035 107.145 26.1616 107.145 26.5709C107.145 26.9751 107.057 27.3333 106.881 27.6454C106.71 27.9574 106.471 28.203 106.163 28.3821C105.859 28.5612 105.515 28.6507 105.129 28.6507ZM105.129 28.006C105.378 28.006 105.6 27.9472 105.796 27.8295C105.996 27.7119 106.153 27.5456 106.265 27.3307C106.378 27.1107 106.434 26.8574 106.434 26.5709C106.434 26.2793 106.378 26.0286 106.265 25.8188C106.153 25.604 105.996 25.4377 105.796 25.32C105.6 25.2023 105.378 25.1435 105.129 25.1435C104.879 25.1435 104.657 25.2023 104.461 25.32C104.266 25.4377 104.109 25.604 103.992 25.8188C103.875 26.0286 103.816 26.2793 103.816 26.5709C103.816 26.8574 103.875 27.1107 103.992 27.3307C104.109 27.5456 104.266 27.7119 104.461 27.8295C104.657 27.9472 104.879 28.006 105.129 28.006Z" fill="#9393A3"/>
<path d="M108.789 28.6047V24.99L108.965 25.1819H107.366V24.5372H110.915V25.1819H109.324L109.493 24.99V28.6047H108.789Z" fill="#9393A3"/>
<path d="M113.696 28.6507C113.373 28.6507 113.077 28.574 112.808 28.4205C112.544 28.2619 112.332 28.0291 112.17 27.7221C112.014 27.4151 111.936 27.0314 111.936 26.5709C111.936 26.1105 112.012 25.7267 112.163 25.4198C112.32 25.1128 112.53 24.8826 112.794 24.7291C113.063 24.5756 113.363 24.4988 113.696 24.4988C114.077 24.4988 114.414 24.5858 114.708 24.7598C115.001 24.9337 115.233 25.1767 115.404 25.4888C115.576 25.7958 115.661 26.1565 115.661 26.5709C115.661 26.9854 115.576 27.3486 115.404 27.6607C115.233 27.9728 115.001 28.2158 114.708 28.3898C114.414 28.5637 114.077 28.6507 113.696 28.6507ZM111.635 30.0935V24.5372H112.31V25.6347L112.266 26.5786L112.339 27.5226V30.0935H111.635ZM113.637 28.006C113.886 28.006 114.109 27.9472 114.304 27.8295C114.505 27.7119 114.661 27.5456 114.774 27.3307C114.891 27.1107 114.95 26.8574 114.95 26.5709C114.95 26.2793 114.891 26.0286 114.774 25.8188C114.661 25.604 114.505 25.4377 114.304 25.32C114.109 25.2023 113.886 25.1435 113.637 25.1435C113.393 25.1435 113.17 25.2023 112.97 25.32C112.774 25.4377 112.618 25.604 112.5 25.8188C112.388 26.0286 112.332 26.2793 112.332 26.5709C112.332 26.8574 112.388 27.1107 112.5 27.3307C112.618 27.5456 112.774 27.7119 112.97 27.8295C113.17 27.9472 113.393 28.006 113.637 28.006Z" fill="#9393A3"/>
<path d="M116.684 28.6047V24.5372H117.388V28.6047H116.684ZM117.036 23.7544C116.899 23.7544 116.784 23.7084 116.691 23.6163C116.603 23.5242 116.559 23.4116 116.559 23.2786C116.559 23.1405 116.603 23.0254 116.691 22.9333C116.784 22.8412 116.899 22.7951 117.036 22.7951C117.173 22.7951 117.285 22.8412 117.373 22.9333C117.466 23.0202 117.513 23.1302 117.513 23.2633C117.513 23.4014 117.469 23.5191 117.381 23.6163C117.293 23.7084 117.178 23.7544 117.036 23.7544Z" fill="#9393A3"/>
<path d="M120.557 28.666C120.235 28.666 119.949 28.6123 119.699 28.5049C119.455 28.3974 119.245 28.2388 119.069 28.0291C118.893 27.8142 118.758 27.5456 118.665 27.2233C118.577 26.8958 118.533 26.5121 118.533 26.0721C118.533 25.7242 118.563 25.4121 118.621 25.1358C118.68 24.8595 118.763 24.614 118.871 24.3991C118.983 24.1842 119.12 23.9974 119.281 23.8388C119.448 23.6802 119.633 23.5498 119.839 23.4474C120.049 23.34 120.279 23.2581 120.528 23.2019L122.303 22.7874L122.405 23.4705L120.77 23.8388C120.672 23.8593 120.555 23.89 120.418 23.9309C120.281 23.9719 120.142 24.0358 120 24.1228C119.858 24.2047 119.726 24.3198 119.604 24.4681C119.482 24.6165 119.384 24.8109 119.311 25.0514C119.237 25.2867 119.201 25.5784 119.201 25.9263C119.201 26.0235 119.203 26.0977 119.208 26.1488C119.213 26.2 119.218 26.2512 119.223 26.3023C119.233 26.3535 119.24 26.4302 119.245 26.5326L118.951 26.2179C119.03 25.9365 119.154 25.6909 119.325 25.4812C119.497 25.2714 119.702 25.1102 119.941 24.9977C120.186 24.88 120.452 24.8212 120.741 24.8212C121.103 24.8212 121.423 24.903 121.701 25.0667C121.985 25.2305 122.207 25.4556 122.369 25.7421C122.53 26.0286 122.611 26.356 122.611 26.7244C122.611 27.0979 122.525 27.433 122.354 27.7298C122.188 28.0214 121.951 28.2516 121.643 28.4205C121.335 28.5842 120.973 28.666 120.557 28.666ZM120.623 28.0521C120.873 28.0521 121.093 27.9958 121.283 27.8833C121.474 27.7656 121.623 27.6095 121.731 27.4151C121.838 27.2156 121.892 26.993 121.892 26.7474C121.892 26.5019 121.838 26.2844 121.731 26.0951C121.623 25.9058 121.474 25.7574 121.283 25.65C121.093 25.5374 120.868 25.4812 120.609 25.4812C120.364 25.4812 120.144 25.5349 119.949 25.6423C119.753 25.7447 119.602 25.8905 119.494 26.0798C119.387 26.264 119.333 26.4788 119.333 26.7244C119.333 26.97 119.387 27.1951 119.494 27.3998C119.607 27.5993 119.758 27.7579 119.949 27.8756C120.144 27.9933 120.369 28.0521 120.623 28.0521Z" fill="#9393A3"/>
<path d="M123.616 28.6047V24.5372H124.32V26.264H126.535V24.5372H127.239V28.6047H126.535V26.9009H124.32V28.6047H123.616Z" fill="#9393A3"/>
<path d="M130.272 28.6507C129.881 28.6507 129.534 28.5612 129.231 28.3821C128.928 28.203 128.688 27.9574 128.512 27.6454C128.336 27.3281 128.248 26.97 128.248 26.5709C128.248 26.1667 128.336 25.8086 128.512 25.4965C128.688 25.1844 128.928 24.9414 129.231 24.7674C129.534 24.5884 129.881 24.4988 130.272 24.4988C130.659 24.4988 131.003 24.5884 131.306 24.7674C131.614 24.9414 131.854 25.1844 132.025 25.4965C132.201 25.8035 132.289 26.1616 132.289 26.5709C132.289 26.9751 132.201 27.3333 132.025 27.6454C131.854 27.9574 131.614 28.203 131.306 28.3821C131.003 28.5612 130.659 28.6507 130.272 28.6507ZM130.272 28.006C130.522 28.006 130.744 27.9472 130.94 27.8295C131.14 27.7119 131.297 27.5456 131.409 27.3307C131.522 27.1107 131.578 26.8574 131.578 26.5709C131.578 26.2793 131.522 26.0286 131.409 25.8188C131.297 25.604 131.14 25.4377 130.94 25.32C130.744 25.2023 130.522 25.1435 130.272 25.1435C130.023 25.1435 129.801 25.2023 129.605 25.32C129.41 25.4377 129.253 25.604 129.136 25.8188C129.018 26.0286 128.96 26.2793 128.96 26.5709C128.96 26.8574 129.018 27.1107 129.136 27.3307C129.253 27.5456 129.41 27.7119 129.605 27.8295C129.801 27.9472 130.023 28.006 130.272 28.006Z" fill="#9393A3"/>
</svg>
