<svg width="100" height="13" viewBox="0 0 100 13" fill="none" xmlns="http://www.w3.org/2000/svg">
<path d="M9.2535 4.212H6.8215C6.6295 3.364 5.9575 2.916 4.8375 2.916C3.5895 2.916 2.8695 3.412 2.8695 4.244C2.8695 4.916 3.3815 5.252 4.2135 5.396L6.2775 5.748C8.1655 6.068 9.5255 7.156 9.5255 9.124C9.5255 11.076 7.9095 12.708 4.9335 12.708C2.0695 12.708 0.293496 11.268 0.0374961 9.012H2.4695C2.6615 10.196 3.7175 10.66 4.9655 10.66C6.3255 10.66 7.1255 10.084 7.1255 9.204C7.1255 8.452 6.5975 8.004 5.7015 7.86L3.4295 7.492C1.6535 7.204 0.469496 6.052 0.469496 4.292C0.469496 2.42 1.9575 0.867999 4.8535 0.867999C7.2855 0.867999 9.0135 2.164 9.2535 4.212ZM14.108 10.324H20.156V12.5H11.724V1.076H14.108V10.324ZM26.5917 0.867999C30.2077 0.867999 32.1597 3.428 32.1597 6.788C32.1597 10.148 30.2077 12.708 26.5917 12.708C22.9757 12.708 21.0237 10.148 21.0237 6.788C21.0237 3.428 22.9757 0.867999 26.5917 0.867999ZM26.5917 10.58C28.7357 10.58 29.7117 8.9 29.7117 6.788C29.7117 4.676 28.7357 2.996 26.5917 2.996C24.4637 2.996 23.4717 4.676 23.4717 6.788C23.4717 8.9 24.4637 10.58 26.5917 10.58ZM41.9669 1.076H44.1429V12.5H41.1669L36.7669 4.628H36.4469V12.5H34.2709V1.076H37.2469L41.6469 8.948H41.9669V1.076ZM58.4556 8.852H60.9356C60.5836 11.124 58.8396 12.708 56.1676 12.708C52.6796 12.708 50.6956 10.276 50.6956 6.788C50.6956 3.3 52.6956 0.867999 56.1676 0.867999C58.7116 0.867999 60.4236 2.308 60.8236 4.404H58.3276C58.0556 3.492 57.3036 2.996 56.1676 2.996C54.1196 2.996 53.1436 4.66 53.1436 6.788C53.1436 8.9 54.1196 10.58 56.1676 10.58C57.3996 10.58 58.2316 9.94 58.4556 8.852ZM68.3645 4.276V6.356H67.6445C65.9325 6.356 65.1325 7.268 65.1325 8.9V12.5H62.8925V4.276H65.0525V5.22H65.3725C65.6445 4.836 66.3165 4.276 67.6445 4.276H68.3645ZM77.6342 7.972V8.644H71.7462C71.8102 10.052 72.4662 10.852 73.7462 10.852C74.5942 10.852 75.0742 10.548 75.2822 10.02H77.5542C77.2182 11.636 75.9382 12.708 73.7142 12.708C71.1222 12.708 69.5222 10.98 69.5222 8.356C69.5222 5.732 71.1222 4.068 73.6662 4.068C76.1622 4.068 77.6342 5.716 77.6342 7.972ZM73.6502 5.748C72.5942 5.748 72.0342 6.324 71.8262 7.156H75.3462C75.2182 6.324 74.6582 5.748 73.6502 5.748ZM82.7011 4.068C83.8051 4.068 84.4451 4.468 84.8771 5.044H85.1971V0.867999H87.4371V12.5H85.2611V11.732H84.9411C84.4931 12.292 83.8371 12.708 82.7011 12.708C80.4291 12.708 79.0691 10.884 79.0691 8.388C79.0691 5.876 80.4611 4.068 82.7011 4.068ZM83.2771 10.852C84.6691 10.852 85.2771 9.684 85.2771 8.388C85.2771 7.092 84.6691 5.94 83.2771 5.94C81.9331 5.94 81.3091 7.012 81.3091 8.388C81.3091 9.764 81.9331 10.852 83.2771 10.852ZM92.0867 2.9H89.7827V0.867999H92.0867V2.9ZM92.0547 4.276V12.5H89.8147V4.276H92.0547ZM97.3354 4.276H99.3994V6.148H97.3354V9.716C97.3354 10.26 97.5914 10.596 98.3594 10.596H99.3994V12.5H98.2154C96.3274 12.5 95.0954 12.148 95.0954 10.1V6.148H93.6394V4.276H95.0954V1.972H97.3354V4.276Z" fill="#222222"/>
</svg>
